<svg id="visual" viewBox="0 0 1000 150" width="1000" height="150" xmlns="http://www.w3.org/2000/svg" xmlns:xlink="http://www.w3.org/1999/xlink" version="1.1"><rect x="0" y="0" width="1000" height="150" fill="#EAE0D5"></rect><path d="M0 109L12.8 109.7C25.7 110.3 51.3 111.7 77 109.8C102.7 108 128.3 103 154 104C179.7 105 205.3 112 231 113.2C256.7 114.3 282.3 109.7 308 103.8C333.7 98 359.3 91 385 84C410.7 77 436.3 70 461.8 74.3C487.3 78.7 512.7 94.3 538.2 101.5C563.7 108.7 589.3 107.3 615 99.7C640.7 92 666.3 78 692 75C717.7 72 743.3 80 769 84.8C794.7 89.7 820.3 91.3 846 87.7C871.7 84 897.3 75 923 79.3C948.7 83.7 974.3 101.3 987.2 110.2L1000 119L1000 151L987.2 151C974.3 151 948.7 151 923 151C897.3 151 871.7 151 846 151C820.3 151 794.7 151 769 151C743.3 151 717.7 151 692 151C666.3 151 640.7 151 615 151C589.3 151 563.7 151 538.2 151C512.7 151 487.3 151 461.8 151C436.3 151 410.7 151 385 151C359.3 151 333.7 151 308 151C282.3 151 256.7 151 231 151C205.3 151 179.7 151 154 151C128.3 151 102.7 151 77 151C51.3 151 25.7 151 12.8 151L0 151Z" fill="#5E503F" stroke-linecap="round" stroke-linejoin="miter"></path></svg>