<svg id="visual" viewBox="0 0 1000 150" width="1000" height="150" xmlns="http://www.w3.org/2000/svg" xmlns:xlink="http://www.w3.org/1999/xlink" version="1.1"><rect x="0" y="0" width="1000" height="150" fill="#EAE0D5"></rect><path d="M0 72L10.5 65.8C21 59.7 42 47.3 62.8 44.8C83.7 42.3 104.3 49.7 125.2 50.3C146 51 167 45 187.8 46.7C208.7 48.3 229.3 57.7 250.2 60.8C271 64 292 61 312.8 61.2C333.7 61.3 354.3 64.7 375.2 64C396 63.3 417 58.7 437.8 54C458.7 49.3 479.3 44.7 500.2 48.5C521 52.3 542 64.7 562.8 68.2C583.7 71.7 604.3 66.3 625.2 60.5C646 54.7 667 48.3 687.8 47.8C708.7 47.3 729.3 52.7 750.2 51.5C771 50.3 792 42.7 812.8 38.5C833.7 34.3 854.3 33.7 875.2 37C896 40.3 917 47.7 937.8 53.7C958.7 59.7 979.3 64.3 989.7 66.7L1000 69L1000 0L989.7 0C979.3 0 958.7 0 937.8 0C917 0 896 0 875.2 0C854.3 0 833.7 0 812.8 0C792 0 771 0 750.2 0C729.3 0 708.7 0 687.8 0C667 0 646 0 625.2 0C604.3 0 583.7 0 562.8 0C542 0 521 0 500.2 0C479.3 0 458.7 0 437.8 0C417 0 396 0 375.2 0C354.3 0 333.7 0 312.8 0C292 0 271 0 250.2 0C229.3 0 208.7 0 187.8 0C167 0 146 0 125.2 0C104.3 0 83.7 0 62.8 0C42 0 21 0 10.5 0L0 0Z" fill="#5E503F" stroke-linecap="round" stroke-linejoin="miter"></path></svg>