<svg id="visual" viewBox="0 0 1000 150" width="1000" height="150" xmlns="http://www.w3.org/2000/svg" xmlns:xlink="http://www.w3.org/1999/xlink" version="1.1"><rect x="0" y="0" width="1000" height="150" fill="#EAE0D5"></rect><path d="M0 104L11.2 100.3C22.3 96.7 44.7 89.3 66.8 88.8C89 88.3 111 94.7 133.2 99.7C155.3 104.7 177.7 108.3 200 105.8C222.3 103.3 244.7 94.7 266.8 92.5C289 90.3 311 94.7 333.2 94C355.3 93.3 377.7 87.7 400 87.7C422.3 87.7 444.7 93.3 466.8 98.8C489 104.3 511 109.7 533.2 109.3C555.3 109 577.7 103 600 102.3C622.3 101.7 644.7 106.3 666.8 105.8C689 105.3 711 99.7 733.2 100.5C755.3 101.3 777.7 108.7 800 111.3C822.3 114 844.7 112 866.8 109.8C889 107.7 911 105.3 933.2 106.5C955.3 107.7 977.7 112.3 988.8 114.7L1000 117L1000 151L988.8 151C977.7 151 955.3 151 933.2 151C911 151 889 151 866.8 151C844.7 151 822.3 151 800 151C777.7 151 755.3 151 733.2 151C711 151 689 151 666.8 151C644.7 151 622.3 151 600 151C577.7 151 555.3 151 533.2 151C511 151 489 151 466.8 151C444.7 151 422.3 151 400 151C377.7 151 355.3 151 333.2 151C311 151 289 151 266.8 151C244.7 151 222.3 151 200 151C177.7 151 155.3 151 133.2 151C111 151 89 151 66.8 151C44.7 151 22.3 151 11.2 151L0 151Z" fill="#0A0908" stroke-linecap="round" stroke-linejoin="miter"></path></svg>