<svg id="visual" viewBox="0 0 1000 150" width="1000" height="150" xmlns="http://www.w3.org/2000/svg" xmlns:xlink="http://www.w3.org/1999/xlink" version="1.1"><rect x="0" y="0" width="1000" height="150" fill="#fefefe"></rect><path d="M0 91L10.5 90.2C21 89.3 42 87.7 62.8 90.2C83.7 92.7 104.3 99.3 125.2 97.8C146 96.3 167 86.7 187.8 79.7C208.7 72.7 229.3 68.3 250.2 66.8C271 65.3 292 66.7 312.8 69.3C333.7 72 354.3 76 375.2 75.8C396 75.7 417 71.3 437.8 70C458.7 68.7 479.3 70.3 500.2 74.7C521 79 542 86 562.8 91.3C583.7 96.7 604.3 100.3 625.2 102.5C646 104.7 667 105.3 687.8 102.2C708.7 99 729.3 92 750.2 92.5C771 93 792 101 812.8 105C833.7 109 854.3 109 875.2 102.2C896 95.3 917 81.7 937.8 80.5C958.7 79.3 979.3 90.7 989.7 96.3L1000 102" fill="none" stroke-linecap="round" stroke-linejoin="miter" stroke="#001122" stroke-width="40"></path></svg>