<svg id="visual" viewBox="0 0 1000 150" width="1000" height="150" xmlns="http://www.w3.org/2000/svg" xmlns:xlink="http://www.w3.org/1999/xlink" version="1.1"><rect x="0" y="0" width="1000" height="150" fill="#EAE0D5"></rect><path d="M0 64L8.8 63.3C17.7 62.7 35.3 61.3 52.8 59.7C70.3 58 87.7 56 105.2 57.3C122.7 58.7 140.3 63.3 158 69.2C175.7 75 193.3 82 210.8 82C228.3 82 245.7 75 263.2 75.8C280.7 76.7 298.3 85.3 315.8 88.2C333.3 91 350.7 88 368.2 86.5C385.7 85 403.3 85 421 86C438.7 87 456.3 89 473.8 87.5C491.3 86 508.7 81 526.2 74.7C543.7 68.3 561.3 60.7 579 62.2C596.7 63.7 614.3 74.3 631.8 74.7C649.3 75 666.7 65 684.2 63.2C701.7 61.3 719.3 67.7 736.8 69.7C754.3 71.7 771.7 69.3 789.2 68.5C806.7 67.7 824.3 68.3 842 67.5C859.7 66.7 877.3 64.3 894.8 62.8C912.3 61.3 929.7 60.7 947.2 63.7C964.7 66.7 982.3 73.3 991.2 76.7L1000 80L1000 151L991.2 151C982.3 151 964.7 151 947.2 151C929.7 151 912.3 151 894.8 151C877.3 151 859.7 151 842 151C824.3 151 806.7 151 789.2 151C771.7 151 754.3 151 736.8 151C719.3 151 701.7 151 684.2 151C666.7 151 649.3 151 631.8 151C614.3 151 596.7 151 579 151C561.3 151 543.7 151 526.2 151C508.7 151 491.3 151 473.8 151C456.3 151 438.7 151 421 151C403.3 151 385.7 151 368.2 151C350.7 151 333.3 151 315.8 151C298.3 151 280.7 151 263.2 151C245.7 151 228.3 151 210.8 151C193.3 151 175.7 151 158 151C140.3 151 122.7 151 105.2 151C87.7 151 70.3 151 52.8 151C35.3 151 17.7 151 8.8 151L0 151Z" fill="#C6AC8E" stroke-linecap="round" stroke-linejoin="miter"></path></svg>