<svg id="visual" viewBox="0 0 1000 150" width="1000" height="150" xmlns="http://www.w3.org/2000/svg" xmlns:xlink="http://www.w3.org/1999/xlink" version="1.1"><rect x="0" y="0" width="1000" height="150" fill="#EAE0D5"></rect><path d="M0 88L8.8 90.3C17.7 92.7 35.3 97.3 52.8 96C70.3 94.7 87.7 87.3 105.2 82C122.7 76.7 140.3 73.3 158 70.7C175.7 68 193.3 66 210.8 70.2C228.3 74.3 245.7 84.7 263.2 87.2C280.7 89.7 298.3 84.3 315.8 84.3C333.3 84.3 350.7 89.7 368.2 92.3C385.7 95 403.3 95 421 90.7C438.7 86.3 456.3 77.7 473.8 69.3C491.3 61 508.7 53 526.2 53.2C543.7 53.3 561.3 61.7 579 65.8C596.7 70 614.3 70 631.8 69.2C649.3 68.3 666.7 66.7 684.2 66C701.7 65.3 719.3 65.7 736.8 71.8C754.3 78 771.7 90 789.2 94.3C806.7 98.7 824.3 95.3 842 95C859.7 94.7 877.3 97.3 894.8 92C912.3 86.7 929.7 73.3 947.2 67.3C964.7 61.3 982.3 62.7 991.2 63.3L1000 64L1000 0L991.2 0C982.3 0 964.7 0 947.2 0C929.7 0 912.3 0 894.8 0C877.3 0 859.7 0 842 0C824.3 0 806.7 0 789.2 0C771.7 0 754.3 0 736.8 0C719.3 0 701.7 0 684.2 0C666.7 0 649.3 0 631.8 0C614.3 0 596.7 0 579 0C561.3 0 543.7 0 526.2 0C508.7 0 491.3 0 473.8 0C456.3 0 438.7 0 421 0C403.3 0 385.7 0 368.2 0C350.7 0 333.3 0 315.8 0C298.3 0 280.7 0 263.2 0C245.7 0 228.3 0 210.8 0C193.3 0 175.7 0 158 0C140.3 0 122.7 0 105.2 0C87.7 0 70.3 0 52.8 0C35.3 0 17.7 0 8.8 0L0 0Z" fill="#C6AC8E" stroke-linecap="round" stroke-linejoin="miter"></path></svg>